<svg width="1115" height="1115" viewBox="0 0 1115 1115" fill="none" xmlns="http://www.w3.org/2000/svg">
<path d="M669.08 223.143H446.12V446.079H669.08V223.143Z" fill="#FE4F32"/>
<path d="M1115 223.143H892.04V446.079H1115V223.143Z" fill="#FE4F32"/>
<path d="M892.04 223.143H669.08V446.079H892.04V223.143Z" fill="#FE4F32"/>
<path d="M892.04 446.032H669.08V668.968H892.04V446.032Z" fill="#FE4F32"/>
<path d="M892.04 669.014H669.08V891.95H892.04V669.014Z" fill="#FE4F32"/>
<path d="M892.04 891.904H669.08V1114.84C792.219 1114.84 892.04 1015.03 892.04 891.904Z" fill="#FE4F32"/>
<path fill-rule="evenodd" clip-rule="evenodd" d="M446.12 0.160431H0.199951V223.096H446.12V0.160431ZM0.199951 223.096L223.16 223.143V668.968H0.199951V223.096ZM0.199951 669.014H223.16V891.904H446.12V1114.84H0.199951V669.014ZM446.12 891.904H669.08V1114.84H446.12V891.904ZM669.08 0.160431H446.12V223.096H669.08V0.160431Z" fill="url(#paint0_linear_1_7)"/>
<defs>
<linearGradient id="paint0_linear_1_7" x1="650.5" y1="905.823" x2="650.5" y2="0.179" gradientUnits="userSpaceOnUse">
<stop stop-color="#FE4F32"/>
<stop offset="1" stop-color="#FFA99C"/>
</linearGradient>
</defs>
</svg>
