<svg width="13657" height="2201" viewBox="0 0 13657 2201" fill="none" xmlns="http://www.w3.org/2000/svg">
<path d="M13628.6 1791.06H13290.4V1467.33H13628.6V1791.06Z" fill="#FE4F32"/>
<path d="M3116.36 1806.65H3626.9C3773.55 1806.65 3898.2 1779.14 4002.69 1720.45C4106.81 1664.38 4191.5 1578.05 4245.59 1472.84C4302.41 1364.62 4330.83 1235.31 4330.83 1085.83C4330.83 936.342 4303.33 807.95 4245.59 700.652C4192.08 595.639 4108.04 509.31 4004.53 453.039C3889.25 392.878 3760.52 363.203 3630.56 366.833H3116.36V1806.65ZM3614.06 1546.2H3421.58V628.202H3614.06C3704.8 628.202 3779.96 643.792 3841.37 675.89C3902.79 707.071 3949.53 757.511 3979.78 824.458C4011.86 892.322 4027.44 979.445 4027.44 1085.83C4027.44 1193.13 4011.86 1280.25 3979.78 1349.03C3951.92 1413.12 3903.12 1465.83 3841.37 1498.51C3779.96 1530.61 3703.89 1546.2 3614.06 1546.2ZM7849.57 366.833V618.114H8289.52V1806.65H8591.99V618.114H9031.95V366.833H7849.57ZM12339 1806.65V1464.58L12419.6 1371.04L12713.8 1807.57H13064.9L12643.3 1194.96L13044.7 727.247H12701L12354.5 1137.18H12339V366.833H12039.2V1806.65H12339ZM11405 1828.66C11295 1828.66 11199.7 1804.82 11119.9 1758.05C11041.1 1711.39 10977.4 1642.92 10936.6 1560.88C10893 1470.61 10871.3 1371.31 10873.4 1271.08C10873.4 1161.03 10895.4 1063.82 10937.5 980.362C10978.5 898.66 11042.1 830.517 11120.8 784.106C11206.9 734.719 11304.9 709.972 11404.1 712.574C11497.5 712.574 11580 729.998 11651.5 763.93C11720.4 796.71 11778.8 847.893 11820.4 911.822C11861.9 975.752 11885 1049.94 11887.1 1126.18H11604.8C11598.9 1076.72 11576.2 1030.76 11540.6 995.952C11523.1 979.264 11502.3 966.28 11479.7 957.772C11457 949.264 11432.8 945.407 11408.6 946.43C11362.8 946.43 11321.6 959.269 11286.7 984.03C11252.8 1008.79 11226.2 1045.48 11207 1094.08C11186.3 1149.47 11176.3 1208.29 11177.7 1267.41C11177.7 1336.19 11186.8 1394.88 11206.1 1442.57C11225.3 1491.18 11251.9 1527.86 11286.7 1552.62C11321.6 1578.3 11361.9 1591.14 11408.6 1591.14C11442.6 1591.14 11472.8 1583.8 11500.3 1570.05C11527.8 1556.29 11550.7 1536.11 11569 1508.6C11587.4 1481.09 11599.3 1448.99 11604.8 1411.39H11887.1C11886.2 1487.8 11864 1562.44 11822.8 1626.8C11781.7 1691.17 11723.3 1742.68 11654.3 1775.47C11584.6 1810.32 11501.2 1828.66 11405 1828.66ZM9932.03 1791.98C9987.03 1815.83 10047.5 1827.75 10116.3 1827.75C10170.3 1827.75 10217.1 1820.41 10257.4 1806.65C10332.7 1781.47 10395.2 1727.83 10431.6 1657.17H10440.7V1807.57H10724.9V1078.49C10727.5 1023.97 10716.1 969.682 10691.7 920.858C10667.3 872.033 10630.7 830.309 10585.5 799.697C10541 769.038 10491.4 746.669 10438.9 733.667C10306.5 699.987 10167.1 706.37 10038.4 752.008C9976.94 773.836 9922.26 811.268 9879.68 860.628C9837.09 909.988 9808.07 969.58 9795.46 1033.55L10073.2 1056.48C10083.3 1019.8 10104.3 991.367 10136.4 967.523C10167.6 943.679 10210.7 930.84 10264.7 930.84C10316.1 930.84 10355.5 943.679 10383 967.523C10410.5 992.284 10425.1 1027.13 10425.1 1071.15V1075.74C10425.1 1098.67 10416 1116.09 10399.5 1128.01C10381.2 1139.93 10353.7 1148.19 10315.2 1154.61C10276.7 1160.11 10226.3 1166.53 10163.9 1172.95C10109.8 1178.45 10059.4 1186.71 10010.9 1199.55C9962.28 1212.38 9919.2 1230.73 9880.7 1255.49C9843.12 1280.25 9812.88 1313.26 9790.88 1354.53C9768.88 1394.88 9757.88 1446.24 9757.88 1505.85C9757.88 1576.47 9773.46 1636.08 9803.71 1683.77C9835.79 1731.45 9878.87 1767.22 9932.03 1791.98ZM10318.8 1594.81C10284.9 1612.23 10245.5 1620.49 10202.4 1620.49C10156.6 1620.49 10118.1 1610.4 10088.8 1589.31C10074.1 1578.67 10062.3 1564.55 10054.5 1548.22C10046.6 1531.89 10043 1513.86 10043.9 1495.76C10043.9 1468.25 10051.2 1444.41 10065.9 1425.15C10080.5 1406.81 10100.7 1391.22 10127.3 1379.29C10152.9 1368.29 10184.1 1360.95 10218.9 1355.45C10257.4 1349.2 10295.9 1343.08 10334.4 1337.11L10389.4 1323.35C10405 1317.85 10417.8 1312.35 10427 1306.84V1421.48C10427 1459.08 10417.8 1493.01 10398.6 1522.36C10379.3 1552.62 10352.7 1577.38 10318.8 1594.81ZM9069.53 1807.57V727.247H9359.17V915.249H9371.08C9384.19 856.572 9417.18 804.239 9464.46 767.13C9511.74 730.021 9570.4 710.421 9630.48 711.657C9662.21 711.707 9693.85 715.088 9724.88 721.745V987.699C9683.55 977.066 9641.07 971.522 9598.4 971.191C9553.48 971.191 9514.07 981.279 9479.24 1000.54C9444.55 1019.63 9415.88 1048.02 9396.44 1082.54C9377.01 1117.05 9367.59 1156.3 9369.25 1195.88V1807.57H9069.53ZM7500.35 1347.2V727.247H7799.15V1806.65H7512.27V1611.32H7500.35C7476.52 1674.59 7436.19 1725.03 7379.36 1763.55C7322.54 1802.07 7253.79 1821.33 7173.13 1821.33C7107.38 1824.2 7042.21 1807.87 6985.57 1774.33C6928.93 1740.78 6883.27 1691.47 6854.16 1632.41C6822.26 1564.49 6806.57 1490.08 6808.34 1415.06V727.247H7107.14V1360.95C7107.14 1425.15 7125.47 1475.59 7158.47 1512.27C7192.38 1548.95 7237.29 1567.3 7294.12 1567.3C7329.9 1568.89 7365.41 1560.46 7396.66 1542.96C7427.91 1525.46 7453.66 1499.59 7471.02 1468.25C7491.19 1436.15 7500.35 1394.88 7500.35 1347.2ZM5887.18 1758.05C5967.83 1804.82 6063.16 1828.66 6173.15 1828.66C6269.39 1828.66 6352.8 1810.32 6422.46 1775.47C6489.88 1742.66 6546.97 1691.89 6587.44 1628.74C6628.69 1566.38 6651.6 1493.93 6655.27 1411.39H6372.96C6367.46 1448.99 6354.63 1482.01 6336.3 1508.6C6318.88 1536.11 6296.89 1556.29 6269.39 1570.05C6241.89 1583.8 6210.73 1591.14 6177.73 1591.14C6130.07 1591.14 6089.74 1578.3 6054.91 1553.54C6018.11 1525.28 5990.12 1487.1 5974.25 1443.49C5954.32 1386.99 5944.99 1327.3 5946.75 1267.41C5946.75 1199.54 5955.92 1140.85 5975.17 1093.16C5993.5 1045.48 6021 1008.79 6054.91 984.03C6089.74 959.269 6130.07 946.43 6176.81 946.43C6231.81 946.43 6275.8 962.937 6309.72 995.952C6343.63 1028.97 6364.71 1072.07 6372.96 1126.18H6655.27C6651.6 1043.64 6627.77 970.274 6587.44 908.83C6545.75 846.156 6487.76 796.056 6419.71 763.93C6342.17 728.26 6257.55 710.698 6172.23 712.574C6073.05 709.972 5975.07 734.719 5889.01 784.106C5810.31 830.517 5746.65 898.66 5705.69 980.362C5663.53 1062.9 5641.53 1161.03 5641.53 1271.08C5641.53 1381.13 5662.61 1477.42 5705.69 1560.88C5746.26 1642.79 5809.6 1711.25 5888.09 1758.05H5887.18ZM4999.01 1828.66C4889.02 1828.66 4795.53 1804.82 4714.87 1758.97C4636.24 1712.47 4572.61 1644.35 4531.56 1562.71C4487.12 1472.05 4465.12 1372.03 4467.4 1271.08C4465.43 1169.86 4487.42 1069.62 4531.56 978.528C4572.45 897.013 4636.14 829.147 4714.87 783.189C4795.53 736.418 4889.02 712.574 4999.01 712.574C5109 712.574 5202.49 736.418 5281.32 783.189C5360.49 828.88 5424.55 896.794 5465.55 978.528C5508.63 1061.98 5529.71 1160.11 5529.71 1271.99C5529.71 1382.04 5508.63 1479.26 5465.55 1562.71C5424.59 1644.41 5360.94 1712.56 5282.23 1758.97C5195.82 1807.28 5097.97 1831.36 4999.01 1828.66ZM5000.85 1596.64C5050.34 1596.64 5091.59 1581.97 5124.58 1554.46C5158.5 1525.11 5183.24 1486.59 5199.74 1437.07C5218.02 1383.03 5227.01 1326.29 5226.32 1269.24C5226.32 1205.96 5217.16 1150.02 5199.74 1101.42C5185.77 1056.2 5159.8 1015.63 5124.58 984.03C5089.92 955.232 5045.87 940.214 5000.85 941.845C4950.43 941.845 4908.27 955.601 4873.44 984.03C4838.4 1015.95 4812.19 1056.38 4797.36 1101.42C4779.63 1155.56 4770.96 1212.27 4771.7 1269.24C4771.7 1331.61 4780.87 1388.46 4797.36 1437.07C4812.19 1482.1 4838.4 1522.54 4873.44 1554.46C4908.27 1581.97 4950.43 1596.64 5000.85 1596.64Z" fill="white"/>
<path d="M1320.74 440.292H880.495V880.491H1320.74V440.292Z" fill="#FE4F32"/>
<path d="M2201.24 440.292H1760.99V880.491H2201.24V440.292Z" fill="#FE4F32"/>
<path d="M1760.99 440.292H1320.74V880.491H1760.99V440.292Z" fill="#FE4F32"/>
<path d="M1760.99 880.4H1320.74V1320.6H1760.99V880.4Z" fill="#FE4F32"/>
<path d="M1760.99 1320.69H1320.74V1760.89H1760.99V1320.69Z" fill="#FE4F32"/>
<path d="M1760.99 1760.8H1320.74V2201C1563.89 2201 1760.99 2003.92 1760.99 1760.8Z" fill="#FE4F32"/>
<path fill-rule="evenodd" clip-rule="evenodd" d="M880.495 0H0V440.2H880.495V0ZM0 440.2L440.248 440.292V1320.6H0V440.2ZM0 1320.69H440.248V1760.8H880.495V2201H0V1320.69ZM880.495 1760.8H1320.74V2201H880.495V1760.8ZM1320.74 0H880.495V440.2H1320.74V0Z" fill="url(#paint0_linear_1_38)"/>
<defs>
<linearGradient id="paint0_linear_1_38" x1="1284.06" y1="1788.28" x2="1284.06" y2="0.0366662" gradientUnits="userSpaceOnUse">
<stop stop-color="#FE4F32"/>
<stop offset="1" stop-color="#FFA99C"/>
</linearGradient>
</defs>
</svg>
